<?xml version="1.0" encoding="UTF-8" standalone="no"?>
<!-- Created with Inkscape (http://www.inkscape.org/) -->

<svg
   width="512"
   height="512"
   viewBox="0 0 512 512"
   version="1.1"
   id="svg1"
   inkscape:export-filename="icon1.svg"
   inkscape:export-xdpi="96"
   inkscape:export-ydpi="96"
   sodipodi:docname="icon2.svg"
   xmlns:inkscape="http://www.inkscape.org/namespaces/inkscape"
   xmlns:sodipodi="http://sodipodi.sourceforge.net/DTD/sodipodi-0.dtd"
   xmlns="http://www.w3.org/2000/svg"
   xmlns:svg="http://www.w3.org/2000/svg">
  <sodipodi:namedview
     id="namedview1"
     pagecolor="#ffffff"
     bordercolor="#000000"
     borderopacity="0.25"
     inkscape:showpageshadow="2"
     inkscape:pageopacity="0.0"
     inkscape:pagecheckerboard="0"
     inkscape:deskcolor="#d1d1d1"
     inkscape:document-units="px"
     showguides="false">
    <inkscape:page
       x="0"
       y="0"
       width="512"
       height="512"
       id="page2"
       margin="0"
       bleed="0" />
  </sodipodi:namedview>
  <defs
     id="defs1" />
  <g
     inkscape:label="Слой 1"
     inkscape:groupmode="layer"
     id="layer1">
    <path
       id="rect1"
       style="fill:#0066ff;fill-opacity:1"
       d="M 98.002518 367.65776 C 98.002518 387.04776 113.61219 402.65743 133.00219 402.65743 L 185.92192 402.65743 A 40.000002 40.000002 0 0 0 183.00231 417.65787 A 40.000002 40.000002 0 0 0 223.00213 457.65769 A 40.000002 40.000002 0 0 0 263.00195 417.65787 A 40.000002 40.000002 0 0 0 260.08371 402.65743 L 313.00206 402.65743 C 332.39206 402.65743 348.00311 387.04776 348.00311 367.65776 L 348.00311 314.73803 A 40.000002 40.000002 0 0 1 333.00266 317.65764 A 40.000002 40.000002 0 0 1 293.77326 285.47047 L 262.23153 285.47047 A 40.000002 40.000002 0 0 1 223.00213 317.65764 A 40.000002 40.000002 0 0 1 183.77272 285.47047 L 152.23237 285.47047 A 40.000002 40.000002 0 0 1 113.00297 317.65764 A 40.000002 40.000002 0 0 1 98.002518 314.73803 L 98.002518 367.65776 z M 98.002518 240.57762 A 40.000002 40.000002 0 0 1 113.00297 237.65801 A 40.000002 40.000002 0 0 1 152.23237 269.84518 L 183.77272 269.84518 A 40.000002 40.000002 0 0 1 223.00213 237.65801 A 40.000002 40.000002 0 0 1 262.23153 269.84518 L 293.77326 269.84518 A 40.000002 40.000002 0 0 1 333.00266 237.65801 A 40.000002 40.000002 0 0 1 348.00311 240.57762 L 348.00311 187.65789 C 348.00311 168.26789 332.39206 152.65823 313.00206 152.65823 L 260.08371 152.65823 A 40.000002 40.000002 0 0 0 263.00195 137.65778 A 40.000002 40.000002 0 0 0 223.00213 97.657963 A 40.000002 40.000002 0 0 0 183.00231 137.65778 A 40.000002 40.000002 0 0 0 185.92192 152.65823 L 133.00219 152.65823 C 113.61219 152.65823 98.002518 168.26789 98.002518 187.65789 L 98.002518 240.57762 z M 198.6276 277.65783 A 24.374866 24.374864 0 0 0 223.00213 302.03235 A 24.374866 24.374864 0 0 0 247.37803 277.65783 A 24.374866 24.374864 0 0 0 223.00213 253.28193 A 24.374866 24.374864 0 0 0 198.6276 277.65783 z "
       transform="matrix(0,1.4222232,-1.4222233,0,650.89143,-61.158798)" />
  </g>
</svg>
